<?xml version="1.0"?>
<svg xmlns="http://www.w3.org/2000/svg" viewBox="0 0 240 240" role="img" aria-label="Mo wins this board">
  <defs>
    <radialGradient id="mw-shade" cx="0.65" cy="0.7" r="0.7">
      <stop offset="0%" stop-color="#ffffff" stop-opacity="0"></stop>
      <stop offset="100%" stop-color="#D62983" stop-opacity="0.35"></stop>
    </radialGradient>
    
  </defs>

  
  <g class="mw-tile">
    <rect x="8" y="8" width="224" height="224" rx="20" fill="#FF3FA4" fill-opacity="0.14"></rect>
    <rect x="8" y="8" width="224" height="224" rx="20" fill="none" stroke="#FF3FA4" stroke-opacity="0.45" stroke-width="3"></rect>
  </g>

  
  <circle class="mw-ring" cx="120" cy="118" r="84" fill="none" stroke="#FF3FA4" stroke-width="6"></circle>

  
  <g fill="#FFD23F">
    <path class="mw-spark" d="M40 60 l4 12 l12 4 l-12 4 l-4 12 l-4 -12 l-12 -4 l12 -4 z"></path>
    <path class="mw-spark b" d="M198 70 l3 9 l9 3 l-9 3 l-3 9 l-3 -9 l-9 -3 l9 -3 z"></path>
    <path class="mw-spark c" d="M196 168 l3 9 l9 3 l-9 3 l-3 9 l-3 -9 l-9 -3 l9 -3 z"></path>
  </g>

  
  <g class="mw-pop">
    
    <rect x="98" y="170" width="18" height="36" rx="9" fill="#FF3FA4"></rect>
    <rect x="124" y="170" width="18" height="36" rx="9" fill="#FF3FA4"></rect>
    <ellipse cx="107" cy="210" rx="15" ry="8" fill="#FF3FA4"></ellipse>
    <ellipse cx="133" cy="210" rx="15" ry="8" fill="#FF3FA4"></ellipse>

    
    <g transform="rotate(-42 78 96)">
      <rect x="42" y="86" width="46" height="18" rx="9" fill="#FF3FA4"></rect>
      <circle cx="46" cy="95" r="15" fill="#FF3FA4"></circle>
    </g>
    <g transform="rotate(42 162 96)">
      <rect x="152" y="86" width="46" height="18" rx="9" fill="#FF3FA4"></rect>
      <circle cx="194" cy="95" r="15" fill="#FF3FA4"></circle>
    </g>

    
    <circle cx="120" cy="110" r="74" fill="#FF3FA4"></circle>
    <circle cx="120" cy="110" r="74" fill="url(#mw-shade)"></circle>
    <ellipse cx="98" cy="84" rx="26" ry="18" fill="#ffffff" opacity="0.22"></ellipse>

    
    <circle cx="96" cy="104" r="7" fill="#0E0E14"></circle>
    <circle cx="144" cy="104" r="7" fill="#0E0E14"></circle>
    <ellipse cx="120" cy="140" rx="11" ry="14" fill="#0E0E14"></ellipse>
    <circle cx="84" cy="128" r="8" fill="#D62983" opacity="0.45"></circle>
    <circle cx="156" cy="128" r="8" fill="#D62983" opacity="0.45"></circle>
  </g>
</svg>