<?xml version="1.0"?>
<svg xmlns="http://www.w3.org/2000/svg" viewBox="0 0 240 280" role="img" aria-label="Mo — Mega OX noughts marker">
  <defs>
    <radialGradient id="mo-shade" cx="0.65" cy="0.7" r="0.7">
      <stop offset="0%" stop-color="#ffffff" stop-opacity="0"></stop>
      <stop offset="100%" stop-color="#D62983" stop-opacity="0.35"></stop>
    </radialGradient>
  </defs>

  
  <rect x="82" y="208" width="22" height="48" rx="11" fill="#FF3FA4"></rect>
  <rect x="136" y="208" width="22" height="48" rx="11" fill="#FF3FA4"></rect>
  <ellipse cx="93" cy="262" rx="18" ry="10" fill="#FF3FA4"></ellipse>
  <ellipse cx="147" cy="262" rx="18" ry="10" fill="#FF3FA4"></ellipse>

  
  <g transform="rotate(-20 50 130)">
    <rect x="14" y="120" width="56" height="22" rx="11" fill="#FF3FA4"></rect>
    <circle cx="20" cy="131" r="18" fill="#FF3FA4"></circle>
  </g>
  
  <g transform="rotate(20 190 130)">
    <rect x="170" y="120" width="56" height="22" rx="11" fill="#FF3FA4"></rect>
    <circle cx="220" cy="131" r="18" fill="#FF3FA4"></circle>
  </g>

  
  <circle cx="120" cy="130" r="92" fill="#FF3FA4"></circle>
  <circle cx="120" cy="130" r="92" fill="url(#mo-shade)"></circle>

  
  <ellipse cx="95" cy="98" rx="32" ry="22" fill="#ffffff" opacity="0.22"></ellipse>

  
  <circle cx="92" cy="125" r="7" fill="#0E0E14"></circle>
  <circle cx="148" cy="125" r="7" fill="#0E0E14"></circle>

  
  <path d="M 100 158 Q 120 178 140 158" stroke="#0E0E14" stroke-width="5.5" fill="none" stroke-linecap="round"></path>

  
  <circle cx="80" cy="148" r="7" fill="#D62983" opacity="0.45"></circle>
  <circle cx="160" cy="148" r="7" fill="#D62983" opacity="0.45"></circle>
</svg>