<?xml version="1.0"?>
<svg xmlns="http://www.w3.org/2000/svg" viewBox="0 0 240 240" role="img" aria-label="Xan wins this board">
  <defs>
    <radialGradient id="xw-shade" cx="0.65" cy="0.7" r="0.75">
      <stop offset="0%" stop-color="#ffffff" stop-opacity="0"></stop>
      <stop offset="100%" stop-color="#08A0B5" stop-opacity="0.35"></stop>
    </radialGradient>
    
  </defs>

  
  <g class="xw-tile">
    <rect x="8" y="8" width="224" height="224" rx="20" fill="#1FE0E5" fill-opacity="0.14"></rect>
    <rect x="8" y="8" width="224" height="224" rx="20" fill="none" stroke="#1FE0E5" stroke-opacity="0.45" stroke-width="3"></rect>
  </g>

  
  <circle class="xw-ring" cx="120" cy="120" r="84" fill="none" stroke="#1FE0E5" stroke-width="6"></circle>

  
  <g fill="#FFD23F">
    <path class="xw-spark" d="M42 64 l4 12 l12 4 l-12 4 l-4 12 l-4 -12 l-12 -4 l12 -4 z"></path>
    <path class="xw-spark b" d="M196 66 l3 9 l9 3 l-9 3 l-3 9 l-3 -9 l-9 -3 l9 -3 z"></path>
    <path class="xw-spark c" d="M198 170 l3 9 l9 3 l-9 3 l-3 9 l-3 -9 l-9 -3 l9 -3 z"></path>
  </g>

  
  <g class="xw-pop">
    <g transform="translate(120 120)">
      <rect x="-84" y="-22" width="168" height="44" rx="22" fill="#1FE0E5" transform="rotate(45)"></rect>
      <rect x="-84" y="-22" width="168" height="44" rx="22" fill="#1FE0E5" transform="rotate(-45)"></rect>
    </g>
    <circle cx="120" cy="120" r="44" fill="#1FE0E5"></circle>
    <circle cx="120" cy="120" r="44" fill="url(#xw-shade)"></circle>
    <ellipse cx="72" cy="72" rx="20" ry="11" fill="#ffffff" opacity="0.20" transform="rotate(-45 72 72)"></ellipse>

    
    <circle cx="107" cy="115" r="6" fill="#0E0E14"></circle>
    <path d="M 126 115 q 7 0 14 0" stroke="#0E0E14" stroke-width="4.5" fill="none" stroke-linecap="round"></path>
    <path d="M 108 138 Q 120 152 132 138" stroke="#0E0E14" stroke-width="5" fill="none" stroke-linecap="round"></path>
    <circle cx="95" cy="135" r="7" fill="#08A0B5" opacity="0.45"></circle>
    <circle cx="145" cy="135" r="7" fill="#08A0B5" opacity="0.45"></circle>
  </g>
</svg>